<svg width="69" height="141" viewBox="0 0 69 141" fill="none" xmlns="http://www.w3.org/2000/svg">
<path id="Vector 2" d="M66 1H3C1.89543 1 1 1.89543 1 3V137.5C1 138.605 1.89543 139.5 3 139.5H16.5C17.6046 139.5 18.5 138.605 18.5 137.5V76.5C18.5 75.3954 19.3954 74.5 20.5 74.5H60C61.1046 74.5 62 73.6046 62 72.5V63.5C62 62.3954 61.1046 61.5 60 61.5H20.5C19.3954 61.5 18.5 60.6046 18.5 59.5V16.5C18.5 15.3954 19.3954 14.5 20.5 14.5H66C67.1046 14.5 68 13.6046 68 12.5V3C68 1.89543 67.1046 1 66 1Z" stroke="white" stroke-width="2"/>
</svg>
